<svg width="25" height="24" viewBox="0 0 25 24" fill="none" xmlns="http://www.w3.org/2000/svg">
<path d="M17.0837 3.56V2C17.0837 1.59 16.7437 1.25 16.3337 1.25C15.9237 1.25 15.5837 1.59 15.5837 2V3.5H9.08373V2C9.08373 1.59 8.74373 1.25 8.33373 1.25C7.92373 1.25 7.58373 1.59 7.58373 2V3.56C4.88373 3.81 3.57373 5.42 3.37373 7.81C3.35373 8.1 3.59373 8.34 3.87373 8.34H20.7937C21.0837 8.34 21.3237 8.09 21.2937 7.81C21.0937 5.42 19.7837 3.81 17.0837 3.56Z" fill="#000000"/>
<path d="M20.3335 9.84009H4.3335C3.7835 9.84009 3.3335 10.2901 3.3335 10.8401V17.0001C3.3335 20.0001 4.8335 22.0001 8.3335 22.0001H16.3335C19.8335 22.0001 21.3335 20.0001 21.3335 17.0001V10.8401C21.3335 10.2901 20.8835 9.84009 20.3335 9.84009ZM9.5435 18.2101C9.4435 18.3001 9.3335 18.3701 9.2135 18.4201C9.0935 18.4701 8.9635 18.5001 8.8335 18.5001C8.7035 18.5001 8.5735 18.4701 8.4535 18.4201C8.3335 18.3701 8.2235 18.3001 8.1235 18.2101C7.9435 18.0201 7.8335 17.7601 7.8335 17.5001C7.8335 17.2401 7.9435 16.9801 8.1235 16.7901C8.2235 16.7001 8.3335 16.6301 8.4535 16.5801C8.6935 16.4801 8.9735 16.4801 9.2135 16.5801C9.3335 16.6301 9.4435 16.7001 9.5435 16.7901C9.7235 16.9801 9.8335 17.2401 9.8335 17.5001C9.8335 17.7601 9.7235 18.0201 9.5435 18.2101ZM9.7535 14.3801C9.7035 14.5001 9.6335 14.6101 9.5435 14.7101C9.4435 14.8001 9.3335 14.8701 9.2135 14.9201C9.0935 14.9701 8.9635 15.0001 8.8335 15.0001C8.7035 15.0001 8.5735 14.9701 8.4535 14.9201C8.3335 14.8701 8.2235 14.8001 8.1235 14.7101C8.0335 14.6101 7.9635 14.5001 7.9135 14.3801C7.8635 14.2601 7.8335 14.1301 7.8335 14.0001C7.8335 13.8701 7.8635 13.7401 7.9135 13.6201C7.9635 13.5001 8.0335 13.3901 8.1235 13.2901C8.2235 13.2001 8.3335 13.1301 8.4535 13.0801C8.6935 12.9801 8.9735 12.9801 9.2135 13.0801C9.3335 13.1301 9.4435 13.2001 9.5435 13.2901C9.6335 13.3901 9.7035 13.5001 9.7535 13.6201C9.8035 13.7401 9.8335 13.8701 9.8335 14.0001C9.8335 14.1301 9.8035 14.2601 9.7535 14.3801ZM13.0435 14.7101C12.9435 14.8001 12.8335 14.8701 12.7135 14.9201C12.5935 14.9701 12.4635 15.0001 12.3335 15.0001C12.2035 15.0001 12.0735 14.9701 11.9535 14.9201C11.8335 14.8701 11.7235 14.8001 11.6235 14.7101C11.4435 14.5201 11.3335 14.2601 11.3335 14.0001C11.3335 13.7401 11.4435 13.4801 11.6235 13.2901C11.7235 13.2001 11.8335 13.1301 11.9535 13.0801C12.1935 12.9701 12.4735 12.9701 12.7135 13.0801C12.8335 13.1301 12.9435 13.2001 13.0435 13.2901C13.2235 13.4801 13.3335 13.7401 13.3335 14.0001C13.3335 14.2601 13.2235 14.5201 13.0435 14.7101Z" fill="#000000"/>
</svg>
