<svg width="57" height="71" viewBox="0 0 57 71" fill="none" xmlns="http://www.w3.org/2000/svg">
<g filter="url(#filter0_d_0_570)">
<path d="M4 0H53V48C53 56.2843 46.2843 63 38 63H19C10.7157 63 4 56.2843 4 48V0Z" fill="#FDF1F3"/>
<path fill-rule="evenodd" clip-rule="evenodd" d="M29.0363 48.1777C28.6942 47.9896 28.2806 47.9929 27.9473 48.192L23.8245 50.612L25.4393 44.331C26.4018 44.881 27.5139 45.2 28.6997 45.2C29.8855 45.2 30.9976 44.881 31.9612 44.331L33.5991 50.7022L29.0363 48.1777ZM28.6997 34.2C31.1263 34.2 33.0997 36.1734 33.0997 38.6C33.0997 41.0266 31.1263 43 28.6997 43C26.2731 43 24.2997 41.0266 24.2997 38.6C24.2997 36.1734 26.2731 34.2 28.6997 34.2ZM36.3656 52.6261L33.8257 42.7492C34.7453 41.614 35.2997 40.1719 35.2997 38.6C35.2997 34.9601 32.3396 32 28.6997 32C25.0609 32 22.0997 34.9601 22.0997 38.6C22.0997 40.1719 22.6541 41.614 23.5737 42.7492L21.0349 52.6261C20.9238 53.0573 21.0833 53.5116 21.4386 53.7789C21.7928 54.0462 22.2746 54.0704 22.6563 53.8482L28.5193 50.4063L34.7673 53.8625C34.9334 53.9549 35.1171 54 35.2997 54C35.5384 54 35.776 53.923 35.974 53.7701C36.3205 53.5017 36.4756 53.0518 36.3656 52.6261Z" fill="#E8899E"/>
</g>
<defs>
<filter id="filter0_d_0_570" x="0" y="0" width="57" height="71" filterUnits="userSpaceOnUse" color-interpolation-filters="sRGB">
<feFlood flood-opacity="0" result="BackgroundImageFix"/>
<feColorMatrix in="SourceAlpha" type="matrix" values="0 0 0 0 0 0 0 0 0 0 0 0 0 0 0 0 0 0 127 0" result="hardAlpha"/>
<feOffset dy="4"/>
<feGaussianBlur stdDeviation="2"/>
<feComposite in2="hardAlpha" operator="out"/>
<feColorMatrix type="matrix" values="0 0 0 0 0 0 0 0 0 0 0 0 0 0 0 0 0 0 0.25 0"/>
<feBlend mode="normal" in2="BackgroundImageFix" result="effect1_dropShadow_0_570"/>
<feBlend mode="normal" in="SourceGraphic" in2="effect1_dropShadow_0_570" result="shape"/>
</filter>
</defs>
</svg>
