<svg width="24" height="24" viewBox="0 0 24 24" fill="none" xmlns="http://www.w3.org/2000/svg">
<rect width="24" height="24" rx="4" fill="#6F7384"/>
<path d="M11.9999 3.04183C16.9416 3.04183 20.9583 7.0585 20.9583 12.0002C20.9583 16.9418 16.9416 20.9585 11.9999 20.9585C7.05825 20.9585 3.04158 16.9418 3.04158 12.0002C3.04158 7.0585 7.05825 3.04183 11.9999 3.04183ZM11.9999 19.7085C16.2499 19.7085 19.7083 16.2502 19.7083 12.0002C19.7083 7.75016 16.2499 4.29183 11.9999 4.29183C7.74992 4.29183 4.29158 7.75016 4.29158 12.0002C4.29158 16.2502 7.74992 19.7085 11.9999 19.7085Z" fill="#1C1B1B"/>
<path d="M12 10.5418C12.3417 10.5418 12.625 10.8252 12.625 11.1668V15.3335C12.625 15.6752 12.3417 15.9585 12 15.9585C11.6583 15.9585 11.375 15.6752 11.375 15.3335V11.1668C11.375 10.8252 11.6583 10.5418 12 10.5418Z" fill="#1C1B1B"/>
<path d="M11.9999 7.83311C12.1083 7.83311 12.2166 7.8581 12.3166 7.89977C12.4166 7.94144 12.5083 7.99977 12.5916 8.07477C12.6666 8.15811 12.7249 8.24144 12.7666 8.34977C12.8083 8.44977 12.8333 8.55811 12.8333 8.66644C12.8333 8.77477 12.8083 8.88311 12.7666 8.98311C12.7249 9.08311 12.6666 9.17477 12.5916 9.25811C12.5083 9.33311 12.4166 9.39144 12.3166 9.43311C12.1166 9.51644 11.8833 9.51644 11.6833 9.43311C11.5833 9.39144 11.4916 9.33311 11.4083 9.25811C11.3333 9.17477 11.2749 9.08311 11.2333 8.98311C11.1916 8.88311 11.1666 8.77477 11.1666 8.66644C11.1666 8.55811 11.1916 8.44977 11.2333 8.34977C11.2749 8.24144 11.3333 8.15811 11.4083 8.07477C11.4916 7.99977 11.5833 7.94144 11.6833 7.89977C11.7833 7.8581 11.8916 7.83311 11.9999 7.83311Z" fill="#1C1B1B"/>
</svg>
