<svg width="24" height="24" viewBox="0 0 24 24" fill="none" xmlns="http://www.w3.org/2000/svg">
<rect width="24" height="24" rx="4" fill="#EBEF14"/>
<path d="M12 13.4585C11.6583 13.4585 11.375 13.1752 11.375 12.8335V8.4585C11.375 8.11683 11.6583 7.8335 12 7.8335C12.3417 7.8335 12.625 8.11683 12.625 8.4585V12.8335C12.625 13.1752 12.3417 13.4585 12 13.4585Z" fill="#1C1B1B"/>
<path d="M12.0001 16.375C11.7751 16.375 11.5667 16.2917 11.4084 16.1334C11.3334 16.05 11.2751 15.9584 11.2251 15.8584C11.1834 15.7584 11.1667 15.65 11.1667 15.5417C11.1667 15.325 11.2584 15.1083 11.4084 14.95C11.7167 14.6417 12.2834 14.6417 12.5918 14.95C12.7418 15.1083 12.8334 15.325 12.8334 15.5417C12.8334 15.65 12.8084 15.7584 12.7667 15.8584C12.7251 15.9584 12.6668 16.05 12.5918 16.1334C12.4334 16.2917 12.2251 16.375 12.0001 16.375Z" fill="#1C1B1B"/>
<path d="M12.0001 20.9584C11.4417 20.9584 10.8751 20.8167 10.3751 20.5251L5.42506 17.6667C4.42506 17.0834 3.80005 16.0084 3.80005 14.8501V9.1501C3.80005 7.99176 4.42506 6.91676 5.42506 6.33342L10.3751 3.4751C11.3751 2.89176 12.6167 2.89176 13.6251 3.4751L18.5751 6.33342C19.5751 6.91676 20.2001 7.99176 20.2001 9.1501V14.8501C20.2001 16.0084 19.5751 17.0834 18.5751 17.6667L13.6251 20.5251C13.1251 20.8167 12.5584 20.9584 12.0001 20.9584ZM12.0001 4.29175C11.6584 4.29175 11.3084 4.38342 11.0001 4.55842L6.05006 7.41675C5.43339 7.77508 5.05005 8.43343 5.05005 9.1501V14.8501C5.05005 15.5584 5.43339 16.2251 6.05006 16.5834L11.0001 19.4417C11.6167 19.8001 12.3834 19.8001 12.9917 19.4417L17.9417 16.5834C18.5584 16.2251 18.9418 15.5667 18.9418 14.8501V9.1501C18.9418 8.44176 18.5584 7.77508 17.9417 7.41675L12.9917 4.55842C12.6917 4.38342 12.3417 4.29175 12.0001 4.29175Z" fill="#1C1B1B"/>
</svg>
